# xmcd
#
# Track frame offsets: 
#        150
#        20992
#        40537
#        64505
#        81230
#        100552
#        121890
#        135582
#        155097
#        172857
#        190825
#        211662
#
# Disc length: 3056 seconds
#
# Revision: 1
# Processed by: cddbd v1.5.2PL0 Copyright (c) Steve Scherf et al.
# Submitted via: ExactAudioCopy v1.0b3
#
DISCID=920bee0c
DTITLE=IndianDigitalAudio.com - Awara - Vikas Bhalla
DYEAR=1997
DGENRE=Pop
TTITLE0=Awara
TTITLE1=Diwana
TTITLE2=Door Tak
TTITLE3=Akkadna Na
TTITLE4=Dhuan
TTITLE5=Om
TTITLE6=Gore Gore
TTITLE7=Raahein Wohi
TTITLE8=Galti
TTITLE9=Keh Diya (Pyar Se)
TTITLE10=Awara (Karaoke Sing Along)
TTITLE11=Om (Club Mix)
EXTD=
EXTT0=
EXTT1=
EXTT2=
EXTT3=
EXTT4=
EXTT5=
EXTT6=
EXTT7=
EXTT8=
EXTT9=
EXTT10=
EXTT11=
PLAYORDER=
